<mxfile host="app.diagrams.net" modified="2023-12-14T02:49:03.493Z" agent="Mozilla/5.0 (Windows NT 10.0; Win64; x64) AppleWebKit/537.36 (KHTML, like Gecko) Chrome/119.0.0.0 Safari/537.36" etag="LvkErq30PI1PoEmixdPq" version="22.1.8" type="github">
  <diagram name="Page-1" id="c7558073-3199-34d8-9f00-42111426c3f3">
    <mxGraphModel dx="1434" dy="758" grid="1" gridSize="10" guides="1" tooltips="1" connect="1" arrows="1" fold="1" page="1" pageScale="1" pageWidth="826" pageHeight="1169" background="none" math="0" shadow="0">
      <root>
        <mxCell id="0" />
        <mxCell id="1" parent="0" />
        <mxCell id="8FJ_tVRJh1unORhr5_XG-99" value="" style="edgeStyle=orthogonalEdgeStyle;rounded=0;orthogonalLoop=1;jettySize=auto;html=1;" edge="1" parent="1" source="8FJ_tVRJh1unORhr5_XG-97" target="8FJ_tVRJh1unORhr5_XG-98">
          <mxGeometry relative="1" as="geometry" />
        </mxCell>
        <mxCell id="8FJ_tVRJh1unORhr5_XG-137" value="Patient ID Entry" style="edgeLabel;html=1;align=center;verticalAlign=middle;resizable=0;points=[];" vertex="1" connectable="0" parent="8FJ_tVRJh1unORhr5_XG-99">
          <mxGeometry x="0.2909" y="2" relative="1" as="geometry">
            <mxPoint x="-21" y="2" as="offset" />
          </mxGeometry>
        </mxCell>
        <mxCell id="8FJ_tVRJh1unORhr5_XG-97" value="patients" style="shape=mxgraph.signs.healthcare.out_patient;html=1;pointerEvents=1;fillColor=#000000;strokeColor=none;verticalLabelPosition=bottom;verticalAlign=top;align=center;" vertex="1" parent="1">
          <mxGeometry x="50" y="140" width="40" height="69" as="geometry" />
        </mxCell>
        <mxCell id="8FJ_tVRJh1unORhr5_XG-101" value="" style="edgeStyle=orthogonalEdgeStyle;rounded=0;orthogonalLoop=1;jettySize=auto;html=1;" edge="1" parent="1" source="8FJ_tVRJh1unORhr5_XG-98" target="8FJ_tVRJh1unORhr5_XG-100">
          <mxGeometry relative="1" as="geometry">
            <Array as="points">
              <mxPoint x="290" y="175" />
              <mxPoint x="290" y="100" />
            </Array>
          </mxGeometry>
        </mxCell>
        <mxCell id="8FJ_tVRJh1unORhr5_XG-98" value="Kiosk" style="verticalLabelPosition=bottom;sketch=0;aspect=fixed;html=1;verticalAlign=top;strokeColor=none;align=center;outlineConnect=0;shape=mxgraph.citrix.kiosk;" vertex="1" parent="1">
          <mxGeometry x="200" y="132" width="65" height="85" as="geometry" />
        </mxCell>
        <mxCell id="8FJ_tVRJh1unORhr5_XG-103" value="" style="edgeStyle=orthogonalEdgeStyle;rounded=0;orthogonalLoop=1;jettySize=auto;html=1;" edge="1" parent="1" source="8FJ_tVRJh1unORhr5_XG-100" target="8FJ_tVRJh1unORhr5_XG-102">
          <mxGeometry relative="1" as="geometry" />
        </mxCell>
        <mxCell id="8FJ_tVRJh1unORhr5_XG-111" style="edgeStyle=orthogonalEdgeStyle;rounded=0;orthogonalLoop=1;jettySize=auto;html=1;exitX=0;exitY=0.75;exitDx=0;exitDy=0;" edge="1" parent="1" source="8FJ_tVRJh1unORhr5_XG-100" target="8FJ_tVRJh1unORhr5_XG-98">
          <mxGeometry relative="1" as="geometry">
            <Array as="points">
              <mxPoint x="308" y="125" />
              <mxPoint x="308" y="190" />
            </Array>
          </mxGeometry>
        </mxCell>
        <mxCell id="8FJ_tVRJh1unORhr5_XG-100" value="search prescription" style="rounded=1;whiteSpace=wrap;html=1;absoluteArcSize=1;arcSize=14;strokeWidth=2;" vertex="1" parent="1">
          <mxGeometry x="350" y="50" width="100" height="100" as="geometry" />
        </mxCell>
        <mxCell id="8FJ_tVRJh1unORhr5_XG-112" style="edgeStyle=orthogonalEdgeStyle;rounded=0;orthogonalLoop=1;jettySize=auto;html=1;exitX=0.15;exitY=0.95;exitDx=0;exitDy=0;exitPerimeter=0;entryX=1;entryY=0.75;entryDx=0;entryDy=0;" edge="1" parent="1" source="8FJ_tVRJh1unORhr5_XG-102" target="8FJ_tVRJh1unORhr5_XG-100">
          <mxGeometry relative="1" as="geometry" />
        </mxCell>
        <mxCell id="8FJ_tVRJh1unORhr5_XG-102" value="prescription database" style="shape=datastore;whiteSpace=wrap;html=1;" vertex="1" parent="1">
          <mxGeometry x="640" y="60" width="80" height="80" as="geometry" />
        </mxCell>
        <mxCell id="8FJ_tVRJh1unORhr5_XG-114" style="edgeStyle=orthogonalEdgeStyle;rounded=0;orthogonalLoop=1;jettySize=auto;html=1;exitX=0.5;exitY=1;exitDx=0;exitDy=0;" edge="1" parent="1" source="8FJ_tVRJh1unORhr5_XG-104" target="8FJ_tVRJh1unORhr5_XG-113">
          <mxGeometry relative="1" as="geometry" />
        </mxCell>
        <mxCell id="8FJ_tVRJh1unORhr5_XG-117" style="edgeStyle=orthogonalEdgeStyle;rounded=0;orthogonalLoop=1;jettySize=auto;html=1;exitX=0;exitY=0;exitDx=0;exitDy=0;entryX=1;entryY=0.5;entryDx=0;entryDy=0;" edge="1" parent="1" source="8FJ_tVRJh1unORhr5_XG-104" target="8FJ_tVRJh1unORhr5_XG-125">
          <mxGeometry relative="1" as="geometry">
            <Array as="points">
              <mxPoint x="490" y="310" />
            </Array>
          </mxGeometry>
        </mxCell>
        <mxCell id="8FJ_tVRJh1unORhr5_XG-104" value="key value&lt;br&gt;store" style="rounded=1;whiteSpace=wrap;html=1;absoluteArcSize=1;arcSize=14;strokeWidth=2;" vertex="1" parent="1">
          <mxGeometry x="490" y="260" width="100" height="100" as="geometry" />
        </mxCell>
        <mxCell id="8FJ_tVRJh1unORhr5_XG-110" style="edgeStyle=orthogonalEdgeStyle;rounded=0;orthogonalLoop=1;jettySize=auto;html=1;exitX=0.5;exitY=1;exitDx=0;exitDy=0;entryX=0.58;entryY=-0.03;entryDx=0;entryDy=0;entryPerimeter=0;" edge="1" parent="1" source="8FJ_tVRJh1unORhr5_XG-100" target="8FJ_tVRJh1unORhr5_XG-104">
          <mxGeometry relative="1" as="geometry" />
        </mxCell>
        <mxCell id="8FJ_tVRJh1unORhr5_XG-116" value="Single prescription" style="edgeLabel;html=1;align=center;verticalAlign=middle;resizable=0;points=[];" vertex="1" connectable="0" parent="8FJ_tVRJh1unORhr5_XG-110">
          <mxGeometry x="0.0333" y="1" relative="1" as="geometry">
            <mxPoint as="offset" />
          </mxGeometry>
        </mxCell>
        <mxCell id="8FJ_tVRJh1unORhr5_XG-124" style="edgeStyle=orthogonalEdgeStyle;rounded=0;orthogonalLoop=1;jettySize=auto;html=1;exitX=0.85;exitY=0.05;exitDx=0;exitDy=0;exitPerimeter=0;entryX=0.75;entryY=1;entryDx=0;entryDy=0;" edge="1" parent="1" source="8FJ_tVRJh1unORhr5_XG-113" target="8FJ_tVRJh1unORhr5_XG-104">
          <mxGeometry relative="1" as="geometry" />
        </mxCell>
        <mxCell id="8FJ_tVRJh1unORhr5_XG-113" value="Radiographic Imaging Rooms" style="shape=datastore;whiteSpace=wrap;html=1;" vertex="1" parent="1">
          <mxGeometry x="495" y="585" width="90" height="70" as="geometry" />
        </mxCell>
        <mxCell id="8FJ_tVRJh1unORhr5_XG-133" style="edgeStyle=orthogonalEdgeStyle;rounded=0;orthogonalLoop=1;jettySize=auto;html=1;exitX=1;exitY=0.5;exitDx=0;exitDy=0;entryX=0;entryY=1;entryDx=0;entryDy=0;" edge="1" parent="1" source="8FJ_tVRJh1unORhr5_XG-118" target="8FJ_tVRJh1unORhr5_XG-104">
          <mxGeometry relative="1" as="geometry" />
        </mxCell>
        <mxCell id="8FJ_tVRJh1unORhr5_XG-118" value="Finding a room for multiple imaging options in the examination area." style="rounded=1;whiteSpace=wrap;html=1;absoluteArcSize=1;arcSize=14;strokeWidth=2;" vertex="1" parent="1">
          <mxGeometry x="130" y="470" width="100" height="100" as="geometry" />
        </mxCell>
        <mxCell id="8FJ_tVRJh1unORhr5_XG-121" style="edgeStyle=orthogonalEdgeStyle;rounded=0;orthogonalLoop=1;jettySize=auto;html=1;exitX=0.5;exitY=1;exitDx=0;exitDy=0;entryX=0.5;entryY=0;entryDx=0;entryDy=0;" edge="1" parent="1" target="8FJ_tVRJh1unORhr5_XG-118">
          <mxGeometry relative="1" as="geometry">
            <mxPoint x="190" y="209" as="sourcePoint" />
            <mxPoint x="203" y="316" as="targetPoint" />
            <Array as="points">
              <mxPoint x="190" y="210" />
              <mxPoint x="180" y="210" />
              <mxPoint x="180" y="280" />
            </Array>
          </mxGeometry>
        </mxCell>
        <mxCell id="8FJ_tVRJh1unORhr5_XG-122" value="multi prescriptions" style="edgeLabel;html=1;align=center;verticalAlign=middle;resizable=0;points=[];" vertex="1" connectable="0" parent="8FJ_tVRJh1unORhr5_XG-121">
          <mxGeometry x="0.0333" y="1" relative="1" as="geometry">
            <mxPoint as="offset" />
          </mxGeometry>
        </mxCell>
        <mxCell id="8FJ_tVRJh1unORhr5_XG-132" style="edgeStyle=orthogonalEdgeStyle;rounded=0;orthogonalLoop=1;jettySize=auto;html=1;exitX=0;exitY=0.25;exitDx=0;exitDy=0;" edge="1" parent="1" source="8FJ_tVRJh1unORhr5_XG-125" target="8FJ_tVRJh1unORhr5_XG-98">
          <mxGeometry relative="1" as="geometry" />
        </mxCell>
        <mxCell id="8FJ_tVRJh1unORhr5_XG-125" value="Locating the imaging room with the fewest number of patient" style="rounded=1;whiteSpace=wrap;html=1;absoluteArcSize=1;arcSize=14;strokeWidth=2;" vertex="1" parent="1">
          <mxGeometry x="310" y="260" width="100" height="100" as="geometry" />
        </mxCell>
        <mxCell id="8FJ_tVRJh1unORhr5_XG-129" value="Examination Registration Database" style="shape=datastore;whiteSpace=wrap;html=1;" vertex="1" parent="1">
          <mxGeometry x="310" y="600" width="90" height="70" as="geometry" />
        </mxCell>
        <mxCell id="8FJ_tVRJh1unORhr5_XG-131" style="edgeStyle=orthogonalEdgeStyle;rounded=0;orthogonalLoop=1;jettySize=auto;html=1;exitX=0.5;exitY=1;exitDx=0;exitDy=0;entryX=0.578;entryY=0;entryDx=0;entryDy=0;entryPerimeter=0;" edge="1" parent="1" source="8FJ_tVRJh1unORhr5_XG-125" target="8FJ_tVRJh1unORhr5_XG-129">
          <mxGeometry relative="1" as="geometry" />
        </mxCell>
        <mxCell id="8FJ_tVRJh1unORhr5_XG-135" style="edgeStyle=orthogonalEdgeStyle;rounded=0;orthogonalLoop=1;jettySize=auto;html=1;exitX=0;exitY=0.25;exitDx=0;exitDy=0;entryX=0.95;entryY=0.71;entryDx=0;entryDy=0;entryPerimeter=0;" edge="1" parent="1" target="8FJ_tVRJh1unORhr5_XG-97">
          <mxGeometry relative="1" as="geometry">
            <mxPoint x="200" y="188" as="sourcePoint" />
            <mxPoint x="123" y="120" as="targetPoint" />
          </mxGeometry>
        </mxCell>
        <mxCell id="8FJ_tVRJh1unORhr5_XG-136" value="print&amp;nbsp;&amp;nbsp;filing receipt" style="edgeLabel;html=1;align=center;verticalAlign=middle;resizable=0;points=[];" vertex="1" connectable="0" parent="8FJ_tVRJh1unORhr5_XG-135">
          <mxGeometry x="-0.3953" y="2" relative="1" as="geometry">
            <mxPoint x="-16" as="offset" />
          </mxGeometry>
        </mxCell>
      </root>
    </mxGraphModel>
  </diagram>
</mxfile>
